<svg width="307" height="219" viewBox="0 0 307 219" fill="none" xmlns="http://www.w3.org/2000/svg">
<path d="M26.4279 88.5104L2.26524 100.719C-2.18873 126.661 1.56394 173.618 16.0615 194.373C30.5591 215.127 95.3922 219.75 118.548 218.224C141.704 216.698 186.506 202.964 186.506 202.964C218.722 193.807 286.177 174.579 298.258 170.917C310.339 167.254 307.319 150.061 304.299 141.922L277.116 131.24L248.422 112.927V131.24L213.689 126.661L200.097 106.823L192.546 126.661H172.914C201.104 131.748 259.9 143.753 269.565 151.078C279.23 158.403 259.497 162.269 248.422 163.286L231.811 151.078L222.75 163.286H206.138L192.546 170.917L172.914 141.922L163.853 175.495C154.792 174.477 134.254 173.053 124.589 175.495C112.507 178.547 88.3447 161.76 79.2837 151.078C72.0349 142.532 49.0804 147.517 38.5092 151.078C50.5906 137.344 56.6312 141.922 71.7329 141.922C86.8346 141.922 107.977 146.5 124.589 141.922C137.878 138.259 152.275 116.997 157.812 106.823L186.506 100.719L206.138 77.8281L257.483 59.5156L262.014 36.625L277.116 51.8854L269.565 0H231.811L206.138 28.9948L136.67 59.5156L107.977 51.8854L88.3447 77.8281L64.1821 70.1979L38.5092 100.719L26.4279 88.5104Z" fill="#006633"/>
</svg>
